<svg xmlns="http://www.w3.org/2000/svg" viewBox="0 0 128 128" width="128" height="128">
 <defs><linearGradient id="g7" x1="0" y1="0" x2="1" y2="1"><stop offset="0" stop-color="#ffc4b0"/><stop offset="1" stop-color="#f26b4f"/></linearGradient></defs>
 <rect width="128" height="128" rx="64" fill="url(#g7)"/>
 <circle cx="96" cy="26" r="30" fill="#fff" opacity=".18"/>
 <rect x="38" y="4" width="16" height="44" rx="8" fill="#fff1ec" transform="rotate(-10 46 40)"/><rect x="74" y="4" width="16" height="44" rx="8" fill="#fff1ec" transform="rotate(10 82 40)"/><rect x="42" y="10" width="8" height="32" rx="4" fill="#ffc4b0" transform="rotate(-10 46 40)"/><rect x="78" y="10" width="8" height="32" rx="4" fill="#ffc4b0" transform="rotate(10 82 40)"/>
 <ellipse cx="64" cy="74" rx="38" ry="34" fill="#fff1ec"/>
 <circle cx="52" cy="65" r="5" fill="#2b2b3a"/><circle cx="76" cy="65" r="5" fill="#2b2b3a"/><circle cx="54" cy="63" r="1.6" fill="#fff"/><circle cx="78" cy="63" r="1.6" fill="#fff"/>
 <ellipse cx="64" cy="79" rx="4.5" ry="3.2" fill="#2b2b3a"/>
 <path d="M58 85 q6 5 12 0" stroke="#2b2b3a" stroke-width="3" fill="none" stroke-linecap="round"/>
 <path d="M64 36 l-16 -9 v18 z" fill="#f26b4f"/><path d="M64 36 l16 -9 v18 z" fill="#f26b4f"/><circle cx="64" cy="36" r="5" fill="#fff"/>
</svg>